<svg width="94" height="30" viewBox="0 0 94 30" fill="none" xmlns="http://www.w3.org/2000/svg">
<path d="M89.4355 19.0156H89V19.16H89.1129V19.5H89.2742V19.16H89.4355V19.0938V19.0156Z" fill="#273B4A"/>
<path d="M89.5161 19.5V19.125V19.0156H89.6129L89.7581 19.25L89.9032 19H90V19.5H89.9032V19.1562L89.7581 19.3906L89.6129 19.1562V19.5H89.5161Z" fill="#273B4A"/>
<circle cx="67.5" cy="12.5" r="9.5" fill="#EB001B"/>
<circle cx="80.5" cy="12.5" r="9.5" fill="#F79E1B"/>
<path fill-rule="evenodd" clip-rule="evenodd" d="M74 19.4283C75.8465 17.6952 77 15.2323 77 12.5C77 9.76774 75.8465 7.30487 74 5.57178C72.1535 7.30487 71 9.76774 71 12.5C71 15.2323 72.1535 17.6952 74 19.4283Z" fill="#FF5F00"/>
<path d="M64.5 28.0016H64V27.0017C64 27.0017 63.9142 26.1397 63.5 26.0016C63.3148 25.9399 63.1852 25.9399 63 26.0016C62.5858 26.1397 62.5 27.0016 62.5 27.0016V28.0016H62V27.0016C62 27.0016 61.9142 26.1397 61.5 26.0016C61.3148 25.9399 61.1852 25.9399 61 26.0016C60.5858 26.1397 60.5 27.0017 60.5 27.0017V27.5017V28.0017L60 28.0017V25.5293V25.0016H60.5V25.5294C60.5 25.5294 61.0584 25.0052 61.5 25.0016C61.9366 24.9981 62.5 25.5017 62.5 25.5017C62.5 25.5017 63.0647 24.9681 63.5 25.0016C64.0507 25.044 64.5 25.2976 64.5 26.0016V28.0016Z" fill="#273B4A"/>
<path fill-rule="evenodd" clip-rule="evenodd" d="M67 25.5026C67 25.5026 66.4359 24.9783 66 25.0025C65.2971 25.0416 65 25.7985 65 26.5025C65 27.2066 65.2971 27.9635 66 28.0025C66.4359 28.0268 67 27.5026 67 27.5026V28.0026L67.5 28.0025V25.0025H67L67 25.5026ZM65.75 26.7517C65.75 27.0279 65.9739 27.2517 66.25 27.2517C66.5261 27.2517 66.75 27.0279 66.75 26.7517V26.2517C66.75 25.9756 66.5261 25.7517 66.25 25.7517C65.9739 25.7517 65.75 25.9756 65.75 26.2517V26.7517Z" fill="#273B4A"/>
<path fill-rule="evenodd" clip-rule="evenodd" d="M82 25.501C82 25.501 81.4359 24.9767 81 25.0009C80.2971 25.04 80 25.7969 80 26.501C80 27.205 80.2971 27.9619 81 28.001C81.4359 28.0252 82 27.501 82 27.501V28.001L82.5 28.0009V25.0009H82L82 25.501ZM80.75 26.7501C80.75 27.0263 80.9739 27.2501 81.25 27.2501C81.5261 27.2501 81.75 27.0263 81.75 26.7501V26.2501C81.75 25.974 81.5261 25.7501 81.25 25.7501C80.9739 25.7501 80.75 25.974 80.75 26.2501V26.7501Z" fill="#273B4A"/>
<path fill-rule="evenodd" clip-rule="evenodd" d="M87.0255 26C87.0255 26 86.4608 25.4665 86.0255 25.5C85.4748 25.5424 85.1338 25.9584 85.0255 26.5C84.8874 27.1904 85.3226 27.961 86.0255 28C86.4614 28.0243 87.0255 27.5001 87.0255 27.5001V28.0001L87.5255 28V24H87.0255V26ZM86.25 27.5C86.6642 27.5 87 27.1642 87 26.75C87 26.3358 86.6642 26 86.25 26C85.8358 26 85.5 26.3358 85.5 26.75C85.5 27.1642 85.8358 27.5 86.25 27.5Z" fill="#273B4A"/>
<path d="M68.6614 25.8548C68.7683 25.2639 69.7457 25.8548 69.7457 25.8548L69.9919 25.2639C69.9919 25.2639 67.9771 24.6455 68 26.0001C68.0123 26.7299 69.5 26.4092 69.5 27.0002C69.5 27.646 68.1222 27.3323 68.1222 27.3323V27.8059C68.1222 27.8059 70 28.5002 70 27.0002C70 25.5024 68.5388 26.5318 68.6614 25.8548Z" fill="#273B4A"/>
<path d="M71 26H70.5V25.5H71V25H71.5V25.5H72.5V26H71.5V27.2C71.5 27.4277 71.7723 27.5 72 27.5C72.2277 27.5 72.5 27.2 72.5 27.2L72.75 27.75C72.75 27.75 72.4366 28 72 28C71.5634 28 71 27.9366 71 27.5V26.75V26Z" fill="#273B4A"/>
<path fill-rule="evenodd" clip-rule="evenodd" d="M75.5 27.5L75 27C75 27 74.362 27.366 74 27.2C73.6943 27.0598 73.4982 26.5 73.4982 26.5L75.4982 26.5C75.4982 25.5 74.8105 24.8375 73.9982 24.9999C73.4566 25.1083 72.9998 25.7964 73 26.5C73.0002 27.204 73.3235 27.8051 74 28C74.5933 28.171 75.5 27.5 75.5 27.5ZM73.5 26.0001L75 26C75 26 74.4142 25.362 74 25.5C73.738 25.5874 73.5 26.0001 73.5 26.0001Z" fill="#273B4A"/>
<path d="M76.5 26.5V28H76V25H76.5V25.3438C76.5 25.3438 76.768 25.0482 77 25C77.2784 24.9422 77.7 25.2 77.7 25.2L77.5 25.6C77.5 25.6 77.1953 25.5 77 25.5C76.5 25.5 76.5 26.5 76.5 26.5Z" fill="#273B4A"/>
<path d="M83.5 26.5085V28.0085H83V25.0085H83.5V25.3522C83.5 25.3522 83.768 25.0566 84 25.0085C84.2784 24.9506 84.7 25.2084 84.7 25.2084L84.5 25.6085C84.5 25.6085 84.1953 25.5085 84 25.5085C83.5 25.5085 83.5 26.5085 83.5 26.5085Z" fill="#273B4A"/>
<path d="M88.8536 27.1464C88.6583 26.9512 88.3417 26.9512 88.1464 27.1464C87.9512 27.3417 87.9512 27.6583 88.1464 27.8536C88.3417 28.0488 88.6583 28.0488 88.8536 27.8536C89.0488 27.6583 89.0488 27.3417 88.8536 27.1464Z" fill="#273B4A"/>
<path fill-rule="evenodd" clip-rule="evenodd" d="M88.3971 27.7499V27.555L88.5094 27.75H88.75L88.5478 27.555C88.5478 27.555 88.697 27.5109 88.697 27.3797C88.697 27.2485 88.3971 27.3073 88.3971 27.3073V27.25H88.25V27.7499H88.3971ZM88.4288 27.5108C88.4288 27.5108 88.5182 27.4965 88.5182 27.4452C88.5182 27.394 88.4288 27.3796 88.4288 27.3796V27.5108Z" fill="white"/>
<path d="M79 28C78.2971 27.961 77.9828 27.2038 78 26.5C78.0134 25.9505 78.174 25.5103 78.6624 25.258C79.0571 25.0541 80 25.258 80 25.258L79.8 25.8C79.8 25.8 79.1155 25.5631 78.8101 25.8C78.5739 25.9833 78.4802 26.2017 78.5 26.5C78.5224 26.8363 78.6975 27.3513 79 27.5C79.2804 27.6378 79.8 27 79.8 27L80 27.5C80 27.5 79.436 28.0242 79 28Z" fill="#273B4A"/>
<rect width="40" height="30" rx="4" fill="#2152D1"/>
<path fill-rule="evenodd" clip-rule="evenodd" d="M24.5 11.0006C25.6893 10.2992 28 11.5007 28 11.5007L28.5 9.50066C28.5 9.50066 26.7348 8.979 25.5 9.00066C22.5715 9.05202 21.1381 10.6534 21 13.0007C20.9266 14.2477 22.2672 14.6935 23.5167 15.1091C24.7531 15.5203 25.9004 15.9018 25.5 17.0006C24.7527 19.0518 20 18.0006 20 18.0006L19 20.0006C19 20.0006 26.4746 21.7208 28 18.5006C28.5085 17.4272 28.8011 16.6496 28.5 15.5006C28.2385 14.5028 26.9492 14.1745 25.7366 13.8657C24.3831 13.521 23.1253 13.2007 23.5 12.0007C23.6726 11.4479 23.916 11.3177 24.2616 11.1327L24.2617 11.1327C24.3363 11.0928 24.4156 11.0504 24.5 11.0006ZM17.9739 9.04284L14 20.0007L17 20.0006L21 9.00063L17.9739 9.04284ZM2 9.00065L5.50003 11.0007L10 20.0007L12.5 20.0006L16.5 9.00066H13L11 16.5006L10.75 15.7506C10.75 15.7506 8.93015 11.7908 8.25 9.75058C8 9.00065 7 9.00065 7 9.00065H2ZM29 20.0006L30.5 14.9585L31.5 12.4585L32.5 9.9585C32.5 9.9585 33.0792 9.13326 33.6443 9.04287C33.8252 9.01395 35 9.04292 35 9.04292H36L38.5 20.0428L36.5 20.0008L36 18.0006L32 18.0006L31.5 20.0006H29ZM34 11.4585L32.5 15.9585H35.5L34 11.4585Z" fill="white"/>
</svg>
