<svg width="84" height="84" viewBox="0 0 84 84" fill="none" xmlns="http://www.w3.org/2000/svg">
<path fill-rule="evenodd" clip-rule="evenodd" d="M50.0993 0.59186C50.385 0.850408 50.4278 1.27837 50.5134 2.13431L51.6981 13.9811C51.8614 15.6146 51.9431 16.4314 52.4959 16.6604C53.0488 16.8894 53.6841 16.3696 54.9546 15.33L64.1692 7.79081C64.835 7.2461 65.1678 6.97374 65.5527 6.99294C65.9375 7.01213 66.2416 7.31626 66.8499 7.92451L76.0753 17.1499C76.6836 17.7582 76.9877 18.0623 77.0069 18.4471C77.0261 18.832 76.7537 19.1649 76.209 19.8306L68.6697 29.0453C67.6302 30.3159 67.1104 30.9512 67.3393 31.504C67.5683 32.0568 68.3851 32.1385 70.0186 32.3018L81.8656 33.4865C82.7216 33.5721 83.1495 33.6149 83.4081 33.9006C83.6666 34.1863 83.6666 34.6164 83.6666 35.4766V48.5233C83.6666 49.3835 83.6666 49.8136 83.4081 50.0993C83.1495 50.385 82.7216 50.4278 81.8656 50.5134L70.0202 51.698C68.3867 51.8613 67.5699 51.943 67.3409 52.4958C67.1119 53.0486 67.6317 53.6839 68.6713 54.9545L76.2092 64.1675C76.7539 64.8333 77.0263 65.1661 77.0071 65.551C76.9879 65.9358 76.6838 66.2399 76.0755 66.8482L66.8501 76.0736C66.2418 76.6819 65.9377 76.986 65.5529 77.0052C65.168 77.0244 64.8351 76.752 64.1694 76.2073L54.9548 68.6681C53.6842 67.6286 53.0489 67.1088 52.4961 67.3377C51.9433 67.5667 51.8616 68.3835 51.6983 70.017L50.5134 81.8657C50.4278 82.7216 50.385 83.1495 50.0993 83.4081C49.8136 83.6666 49.3835 83.6666 48.5233 83.6666H35.4766C34.6164 83.6666 34.1863 83.6666 33.9006 83.4081C33.6149 83.1495 33.5722 82.7216 33.4866 81.8656L32.3019 70.0187C32.1385 68.3851 32.0568 67.5684 31.504 67.3394C30.9512 67.1104 30.3159 67.6302 29.0453 68.6697L19.8304 76.2092C19.1647 76.7539 18.8318 77.0263 18.447 77.0071C18.0621 76.9879 17.758 76.6837 17.1497 76.0755L7.92432 66.8501C7.31607 66.2418 7.01194 65.9377 6.99275 65.5529C6.97355 65.168 7.24591 64.8351 7.79062 64.1694L15.33 54.9546C16.3695 53.684 16.8893 53.0487 16.6603 52.4959C16.4314 51.9431 15.6146 51.8614 13.9811 51.6981L2.13431 50.5134C1.27837 50.4278 0.850408 50.385 0.59186 50.0993C0.333313 49.8136 0.333313 49.3835 0.333313 48.5233L0.333314 35.4766C0.333314 34.6164 0.333314 34.1863 0.591861 33.9006C0.850409 33.6149 1.27837 33.5721 2.13431 33.4865L13.9826 32.3017C15.6162 32.1384 16.4329 32.0567 16.6619 31.5039C16.8909 30.9511 16.3711 30.3158 15.3315 29.0452L7.79082 19.8287C7.2461 19.163 6.97375 18.8301 6.99294 18.4453C7.01214 18.0604 7.31626 17.7563 7.92452 17.148L17.1499 7.92262C17.7582 7.31437 18.0623 7.01024 18.4472 6.99104C18.832 6.97185 19.1649 7.24421 19.8306 7.78892L29.0455 15.3284C30.3161 16.3679 30.9514 16.8877 31.5042 16.6587C32.057 16.4298 32.1387 15.613 32.302 13.9794L33.4866 2.13431C33.5722 1.27837 33.6149 0.850408 33.9006 0.59186C34.1863 0.333313 34.6164 0.333313 35.4766 0.333313H48.5233C49.3835 0.333313 49.8136 0.333313 50.0993 0.59186ZM42 58.6666C51.2047 58.6666 58.6667 51.2047 58.6667 42C58.6667 32.7952 51.2047 25.3333 42 25.3333C32.7952 25.3333 25.3333 32.7952 25.3333 42C25.3333 51.2047 32.7952 58.6666 42 58.6666Z" fill="#355A7B"/>
</svg>
