<svg width="17" height="21" viewBox="0 0 17 21" fill="none" xmlns="http://www.w3.org/2000/svg">
<path fill-rule="evenodd" clip-rule="evenodd" d="M8.89217 16.6532C10.4346 15.8726 16 12.6875 16 7.36842C16 3.29895 12.6421 0 8.5 0C4.35786 0 1 3.29895 1 7.36842C1 12.6875 6.56536 15.8726 8.10783 16.6532C8.35791 16.7797 8.64209 16.7797 8.89217 16.6532ZM8.49999 10.5263C10.2752 10.5263 11.7143 9.11248 11.7143 7.36842C11.7143 5.62436 10.2752 4.21053 8.49999 4.21053C6.72479 4.21053 5.28571 5.62436 5.28571 7.36842C5.28571 9.11248 6.72479 10.5263 8.49999 10.5263Z" fill="#273B4A"/>
<path d="M14.9952 15.2632C15.6535 15.7432 16 16.2878 16 16.8421C16 17.3964 15.6535 17.941 14.9952 18.421C14.3369 18.9011 13.3901 19.2998 12.25 19.5769C11.1099 19.8541 9.81653 20 8.5 20C7.18348 20 5.89014 19.8541 4.75 19.5769C3.60986 19.2998 2.66307 18.9011 2.00481 18.421C1.34655 17.941 1 17.3964 1 16.8421C1 16.2878 1.34655 15.7432 2.00481 15.2632" stroke="#273B4A" stroke-width="2" stroke-linecap="round"/>
</svg>
