<svg width="17" height="22" viewBox="0 0 17 22" fill="none" xmlns="http://www.w3.org/2000/svg">
	<path d="M8.87636 16.8281L9.30851 17.7299L9.30852 17.7299L8.87636 16.8281ZM8.12364 16.8281L7.69148 17.7299L7.69148 17.7299L8.12364 16.8281ZM15 8C15 10.1426 13.8176 11.9215 12.3265 13.3107C10.8411 14.6945 9.16214 15.5823 8.4442 15.9263L9.30852 17.7299C10.1104 17.3456 11.9932 16.3546 13.6898 14.774C15.3805 13.1989 17 10.9279 17 8H15ZM8.5 2C12.156 2 15 4.75015 15 8H17C17 3.51786 13.1283 0 8.5 0V2ZM2 8C2 4.75015 4.84405 2 8.5 2V0C3.87168 0 0 3.51786 0 8H2ZM8.5558 15.9263C7.83786 15.5823 6.15887 14.6945 4.67354 13.3107C3.18237 11.9215 2 10.1426 2 8H0C0 10.9279 1.61953 13.1989 3.31023 14.774C5.00675 16.3546 6.88958 17.3456 7.69148 17.7299L8.5558 15.9263ZM8.4442 15.9263C8.45629 15.9205 8.47584 15.9148 8.5 15.9148C8.52416 15.9148 8.54371 15.9205 8.5558 15.9263L7.69148 17.7299C8.20583 17.9764 8.79417 17.9764 9.30851 17.7299L8.4442 15.9263ZM10.7143 8C10.7143 9.04071 9.789 10 8.49998 10V12C10.7614 12 12.7143 10.273 12.7143 8H10.7143ZM8.49998 6C9.789 6 10.7143 6.95929 10.7143 8H12.7143C12.7143 5.727 10.7614 4 8.49998 4V6ZM6.2857 8C6.2857 6.95929 7.21096 6 8.49998 6V4C6.2386 4 4.2857 5.727 4.2857 8H6.2857ZM8.49998 10C7.21096 10 6.2857 9.04071 6.2857 8H4.2857C4.2857 10.273 6.2386 12 8.49998 12V10Z" fill="#273B4A" />
	<path d="M14.9952 16.5C15.6535 16.9561 16 17.4734 16 18C16 18.5266 15.6535 19.0439 14.9952 19.5C14.3369 19.9561 13.3901 20.3348 12.25 20.5981C11.1099 20.8614 9.81653 21 8.5 21C7.18348 21 5.89014 20.8614 4.75 20.5981C3.60986 20.3348 2.66307 19.9561 2.00481 19.5C1.34655 19.0439 1 18.5266 1 18C1 17.4734 1.34655 16.9561 2.00481 16.5" stroke="#273B4A" stroke-width="2" stroke-linecap="round" />
</svg>
