<svg width="300" height="300" viewBox="0 0 300 300" fill="none" xmlns="http://www.w3.org/2000/svg">
	<circle cx="150" cy="150" r="150" fill="#252A33" />
	<path d="M237.81 77.1721L238.502 79.5933V80.1698L239.078 78.325L238.502 76.365L236.428 74.2897L234.815 72.6756L233.778 71.0614L232.742 68.9861L231.935 67.1414L231.129 65.7578L231.705 63.7978L232.281 62.5295L233.778 60.9154L234.47 58.9554L235.276 58.033H236.889L235.276 56.3036L234.239 55.2659L233.318 53.5365L235.276 52.4988L233.318 52.7294L231.705 53.0753H230.207L229.631 52.153L230.207 51L228.018 52.4988L227.442 54.4589L228.018 56.3036L228.94 56.9954V58.033L227.903 57.4565L228.364 58.4942L230.207 59.6472L230.898 60.8001L230.438 62.299L229.286 62.5295L228.594 60.9154L226.866 60.1083L225.484 59.0707H223.065H221.452L220.645 60.2813L221.106 60.1083L222.373 59.6472L224.332 60.1083L225.484 60.9154H224.332L225.484 61.6072L227.442 62.0684L228.364 63.3366H227.442H226.405L225.484 62.8754L224.908 63.7978H223.871L224.332 62.5295L222.373 64.4896L221.913 65.7578L223.41 66.1037L224.332 64.9508H225.484H226.405L226.866 65.7578V66.7955V68.179C226.943 68.5633 227.097 69.4012 227.097 69.6779C227.097 69.9546 227.634 70.4081 227.903 70.6002V68.9861V67.8331L228.018 66.7955H228.364V68.179L228.594 68.9861L228.94 68.4096V67.1414L229.631 68.0637L228.94 69.6779L229.286 70.6002L230.207 71.5226L229.631 72.6756L230.207 73.4826L230.553 72.6756L231.705 72.3297L231.935 70.6002L234.239 73.4826L237.81 77.1721Z" fill="white" />
	<path d="M230.207 71.5226L229.631 72.6756L230.207 73.4826L230.553 72.6756L231.705 72.3297L231.935 70.6002L234.239 73.4826L237.81 77.1721L238.502 79.5933V80.1698L239.078 78.325L238.502 76.365L236.428 74.2897L234.815 72.6756L233.778 71.0614L232.742 68.9861L231.935 67.1414L231.129 65.7578L231.705 63.7978L232.281 62.5295L233.778 60.9154L234.47 58.9554L235.276 58.033H236.889L235.276 56.3036L234.239 55.2659L233.318 53.5365L235.276 52.4988L233.318 52.7294L231.705 53.0753H230.207L229.631 52.153L230.207 51L228.018 52.4988L227.442 54.4589L228.018 56.3036L228.94 56.9954V58.033L227.903 57.4565L228.364 58.4942L230.207 59.6472L230.898 60.8001L230.438 62.299L229.286 62.5295L228.594 60.9154L226.866 60.1083L225.484 59.0707H223.065H221.452L220.645 60.2813M230.207 71.5226L230.668 71.292M230.207 71.5226L229.286 70.6002L228.94 69.6779L229.631 68.0637L228.94 67.1414V68.4096L228.594 68.9861L228.364 68.179V66.7955H228.018L227.903 67.8331V68.9861V70.6002C227.634 70.4081 227.097 69.9546 227.097 69.6779C227.097 69.4012 226.943 68.5633 226.866 68.179V66.7955V65.7578L226.405 64.9508H225.484H224.332L223.41 66.1037L221.913 65.7578L222.373 64.4896L224.332 62.5295L223.871 63.7978H224.908L225.484 62.8754L226.405 63.3366H227.442H228.364L227.442 62.0684L225.484 61.6072L224.332 60.9154H225.484L224.332 60.1083L222.373 59.6472L221.106 60.1083L220.645 60.2813M230.668 71.292L231.129 71.0614V70.1391L230.553 69.6779L230.207 70.1391L230.668 71.292ZM220.185 60.4542L220.645 60.2813" stroke="#252A33" />
	<path d="M244.649 211.048L246.386 216.062V217.256L247.833 213.435L246.386 209.376L241.176 205.078L237.125 201.735L234.52 198.391L231.915 194.093L229.89 190.272L227.864 187.407L229.311 183.347L230.758 180.721L234.52 177.378L236.257 173.318L238.282 171.408H242.334L238.282 167.826L235.678 165.677L233.362 162.095L238.282 159.946L233.362 160.423L229.311 161.14H225.548L224.101 159.229L225.548 156.841L220.05 159.946L218.603 164.005L220.05 167.826L222.365 169.259V171.408L219.76 170.214L220.918 172.363L225.548 174.751L227.285 177.139L226.127 180.243L223.233 180.721L221.497 177.378L217.156 175.706L213.683 173.557H207.605H203.553L201.528 176.064L202.685 175.706L205.869 174.751L210.789 175.706L213.683 177.378H210.789L213.683 178.81L218.603 179.766L220.918 182.392H218.603H215.998L213.683 181.437L212.236 183.347H209.631L210.789 180.721L205.869 184.78L204.711 187.407L208.473 188.123L210.789 185.735H213.683H215.998L217.156 187.407V189.556V192.422C217.349 193.218 217.734 194.953 217.734 195.526C217.734 196.099 219.085 197.038 219.76 197.436V194.093V191.705L220.05 189.556H220.918V192.422L221.497 194.093L222.365 192.899V190.272L224.101 192.183L222.365 195.526L223.233 197.436L225.548 199.347L224.101 201.735L225.548 203.406L226.417 201.735L229.311 201.018L229.89 197.436L235.678 203.406L244.649 211.048Z" fill="white" />
	<path d="M219.465 131.482L221.994 138.927V140.7L224.101 135.027L221.994 129L214.408 122.618L208.507 117.654L204.714 112.691L200.921 106.309L197.97 100.636L195.02 96.3818L197.127 90.3545L199.235 86.4545L204.714 81.4909L207.243 75.4636L210.193 72.6272H216.094L210.193 67.3091L206.4 64.1182L203.028 58.8L210.193 55.6091L203.028 56.3182L197.127 57.3818H191.648L189.541 54.5454L191.648 51L183.64 55.6091L181.533 61.6363L183.64 67.3091L187.012 69.4363V72.6272L183.219 70.8545L184.905 74.0454L191.648 77.5909L194.177 81.1363L192.491 85.7454L188.277 86.4545L185.748 81.4909L179.426 79.0091L174.368 75.8181H165.517H159.617L156.666 79.5409L158.352 79.0091L162.988 77.5909L170.153 79.0091L174.368 81.4909H170.153L174.368 83.6181L181.533 85.0363L184.905 88.9363H181.533H177.74L174.368 87.5181L172.261 90.3545H168.468L170.153 86.4545L162.988 92.4818L161.303 96.3818L166.782 97.4454L170.153 93.8999H174.368H177.74L179.426 96.3818V99.5727V103.827C179.707 105.009 180.269 107.585 180.269 108.436C180.269 109.287 182.236 110.682 183.219 111.273V106.309V102.764L183.64 99.5727H184.905V103.827L185.748 106.309L187.012 104.536V100.636L189.541 103.473L187.012 108.436L188.277 111.273L191.648 114.109L189.541 117.654L191.648 120.136L192.913 117.654L197.127 116.591L197.97 111.273L206.4 120.136L219.465 131.482Z" fill="white" />
	<path d="M254.264 164.009L254.652 165.483V165.834L254.975 164.711L254.652 163.518L253.489 162.255L252.584 161.272L252.003 160.29L251.421 159.027L250.969 157.904L250.516 157.062L250.839 155.869L251.162 155.097L252.003 154.114L252.39 152.921L252.843 152.36H253.747L252.843 151.307L252.261 150.675L251.744 149.623L252.843 148.991L251.744 149.131L250.839 149.342H249.999L249.676 148.78L249.999 148.079L248.771 148.991L248.448 150.184L248.771 151.307L249.288 151.728V152.36L248.707 152.009L248.965 152.64L249.999 153.342L250.387 154.044L250.128 154.956L249.482 155.097L249.094 154.114L248.125 153.623L247.35 152.991H245.992H245.088L244.635 153.728L244.894 153.623L245.605 153.342L246.703 153.623L247.35 154.114H246.703L247.35 154.535L248.448 154.816L248.965 155.588H248.448H247.867L247.35 155.307L247.026 155.869H246.445L246.703 155.097L245.605 156.29L245.346 157.062L246.186 157.272L246.703 156.57H247.35H247.867L248.125 157.062V157.693V158.535C248.168 158.769 248.254 159.279 248.254 159.448C248.254 159.616 248.556 159.892 248.707 160.009V159.027V158.325L248.771 157.693H248.965V158.535L249.094 159.027L249.288 158.676V157.904L249.676 158.465L249.288 159.448L249.482 160.009L249.999 160.571L249.676 161.272L249.999 161.764L250.193 161.272L250.839 161.062L250.969 160.009L252.261 161.764L254.264 164.009Z" fill="white" />
	<path d="M213.573 163.607L214.163 165.406V165.834L214.655 164.463L214.163 163.007L212.393 161.465L211.016 160.265L210.131 159.066L209.246 157.524L208.558 156.153L207.869 155.125L208.361 153.669L208.853 152.726L210.131 151.527L210.721 150.07L211.41 149.385H212.786L211.41 148.1L210.525 147.329L209.738 146.044L211.41 145.272L209.738 145.444L208.361 145.701H207.083L206.591 145.015L207.083 144.159L205.214 145.272L204.722 146.729L205.214 148.1L206.001 148.614V149.385L205.116 148.956L205.509 149.728L207.083 150.584L207.673 151.441L207.279 152.555L206.296 152.726L205.706 151.527L204.231 150.927L203.05 150.156H200.985H199.608L198.92 151.055L199.313 150.927L200.395 150.584L202.067 150.927L203.05 151.527H202.067L203.05 152.041L204.722 152.383L205.509 153.326H204.722H203.837L203.05 152.983L202.559 153.669H201.674L202.067 152.726L200.395 154.183L200.002 155.125L201.28 155.382L202.067 154.525H203.05H203.837L204.231 155.125V155.896V156.924C204.296 157.21 204.427 157.832 204.427 158.038C204.427 158.244 204.886 158.581 205.116 158.723V157.524V156.667L205.214 155.896H205.509V156.924L205.706 157.524L206.001 157.095V156.153L206.591 156.838L206.001 158.038L206.296 158.723L207.083 159.409L206.591 160.265L207.083 160.865L207.378 160.265L208.361 160.008L208.558 158.723L210.525 160.865L213.573 163.607Z" fill="white" />
	<path d="M190.991 177.928L191.834 181.756V182.668L192.536 179.751L191.834 176.652L189.305 173.371L187.338 170.819L186.074 168.267L184.809 164.986L183.826 162.069L182.842 159.882L183.545 156.783L184.247 154.778L186.074 152.226L186.917 149.127L187.9 147.669H189.867L187.9 144.934L186.636 143.294L185.512 140.56L187.9 138.919L185.512 139.284L183.545 139.83H181.719L181.016 138.372L181.719 136.549L179.049 138.919L178.347 142.018L179.049 144.934L180.173 146.028V147.669L178.909 146.757L179.471 148.398L181.719 150.221L182.561 152.044L182 154.413L180.595 154.778L179.752 152.226L177.644 150.95L175.958 149.309H173.008H171.041L170.058 151.223L170.62 150.95L172.165 150.221L174.554 150.95L175.958 152.226H174.554L175.958 153.32L178.347 154.049L179.471 156.054H178.347H177.082L175.958 155.325L175.256 156.783H173.992L174.554 154.778L172.165 157.877L171.603 159.882L173.43 160.429L174.554 158.606H175.958H177.082L177.644 159.882V161.522V163.71C177.738 164.317 177.925 165.642 177.925 166.08C177.925 166.517 178.581 167.234 178.909 167.538V164.986V163.163L179.049 161.522H179.471V163.71L179.752 164.986L180.173 164.074V162.069L181.016 163.528L180.173 166.08L180.595 167.538L181.719 168.996L181.016 170.819L181.719 172.095L182.14 170.819L183.545 170.272L183.826 167.538L186.636 172.095L190.991 177.928Z" fill="white" />
	<path d="M250.926 137.343L251.985 141.173L251.775 141.962L254.063 139.868L253.159 136.755L248.094 132.365L244.155 128.951L241.832 125.968L239.677 122.353L238.085 119.226L236.325 116.729L238.654 114.477L240.732 113.171L245.522 112.08L248.175 109.914L250.773 109.254L255.3 110.458L251.402 106.886L248.87 104.692L246.912 101.636L252.786 101.679L247.206 100.532L242.554 99.8005L238.351 98.6819L237.07 96.9892L239.106 95.8413L232.418 96.2581L230.088 98.5107L231.034 101.466L233.369 103.101L232.992 104.521L230.291 102.958L231.207 104.722L235.961 107.677L237.481 109.772L235.643 111.479L232.326 110.934L230.973 108.209L226.417 105.813L222.915 103.36L216.126 101.554L211.599 100.349L208.896 101.404L210.252 101.511L213.976 101.826L219.305 103.92L222.244 105.885L219.011 105.025L221.993 106.832L227.321 108.926L229.446 111.35L226.86 110.662L223.95 109.888L221.531 108.568L219.579 109.401L216.67 108.626L218.424 107.234L212.215 108.455L210.461 109.846L214.538 111.438L217.544 110.548L220.777 111.409L223.363 112.097L224.363 113.546L223.985 114.966L223.482 116.86C223.558 117.443 223.684 118.705 223.584 119.084C223.483 119.462 224.827 120.485 225.511 120.948L226.098 118.739L226.518 117.161L227.218 115.827L228.188 116.085L227.685 117.979L228.038 119.255L229.218 118.724L229.679 116.988L231.283 118.767L228.757 120.46L229.391 121.981L231.642 123.932L229.606 125.08L230.929 126.615L232.193 125.768L235.552 126.155L236.827 123.96L242.245 129.626L250.926 137.343Z" fill="white" />
	<path d="M72.1896 77.1721L71.4984 79.5933V80.1698L70.9224 78.325L71.4984 76.365L73.5721 74.2897L75.1849 72.6756L76.2217 71.0614L77.2585 68.9861L78.0649 67.1414L78.8713 65.7578L78.2953 63.7978L77.7193 62.5295L76.2217 60.9154L75.5305 58.9554L74.7241 58.033H73.1113L74.7241 56.3036L75.7609 55.2659L76.6825 53.5365L74.7241 52.4988L76.6825 52.7294L78.2953 53.0753H79.7929L80.3689 52.153L79.7929 51L81.9818 52.4988L82.5578 54.4589L81.9818 56.3036L81.0602 56.9954V58.033L82.097 57.4565L81.6362 58.4942L79.7929 59.6472L79.1017 60.8001L79.5625 62.299L80.7145 62.5295L81.4058 60.9154L83.1338 60.1083L84.5162 59.0707H86.9354H88.5482L89.3547 60.2813L88.8938 60.1083L87.6266 59.6472L85.6682 60.1083L84.5162 60.9154H85.6682L84.5162 61.6072L82.5578 62.0684L81.6362 63.3366H82.5578H83.5946L84.5162 62.8754L85.0922 63.7978H86.129L85.6682 62.5295L87.6266 64.4896L88.0874 65.7578L86.5898 66.1037L85.6682 64.9508H84.5162H83.5946L83.1338 65.7578V66.7955V68.179C83.057 68.5633 82.9034 69.4012 82.9034 69.6779C82.9034 69.9546 82.3658 70.4081 82.097 70.6002V68.9861V67.8331L81.9818 66.7955H81.6362V68.179L81.4058 68.9861L81.0602 68.4096V67.1414L80.3689 68.0637L81.0602 69.6779L80.7145 70.6002L79.7929 71.5226L80.3689 72.6756L79.7929 73.4826L79.4473 72.6756L78.2953 72.3297L78.0649 70.6002L75.7609 73.4826L72.1896 77.1721Z" fill="white" />
	<path d="M79.7929 71.5226L80.3689 72.6756L79.7929 73.4826L79.4473 72.6756L78.2953 72.3297L78.0649 70.6002L75.7609 73.4826L72.1896 77.1721L71.4984 79.5933V80.1698L70.9224 78.325L71.4984 76.365L73.5721 74.2897L75.1849 72.6756L76.2217 71.0614L77.2585 68.9861L78.0649 67.1414L78.8713 65.7578L78.2953 63.7978L77.7193 62.5295L76.2217 60.9154L75.5305 58.9554L74.7241 58.033H73.1113L74.7241 56.3036L75.7609 55.2659L76.6825 53.5365L74.7241 52.4988L76.6825 52.7294L78.2953 53.0753H79.7929L80.3689 52.153L79.7929 51L81.9818 52.4988L82.5578 54.4589L81.9818 56.3036L81.0602 56.9954V58.033L82.097 57.4565L81.6362 58.4942L79.7929 59.6472L79.1017 60.8001L79.5625 62.299L80.7145 62.5295L81.4058 60.9154L83.1338 60.1083L84.5162 59.0707H86.9354H88.5482L89.3547 60.2813M79.7929 71.5226L79.3321 71.292M79.7929 71.5226L80.7145 70.6002L81.0602 69.6779L80.3689 68.0637L81.0602 67.1414V68.4096L81.4058 68.9861L81.6362 68.179V66.7955H81.9818L82.097 67.8331V68.9861V70.6002C82.3658 70.4081 82.9034 69.9546 82.9034 69.6779C82.9034 69.4012 83.057 68.5633 83.1338 68.179V66.7955V65.7578L83.5946 64.9508H84.5162H85.6682L86.5898 66.1037L88.0874 65.7578L87.6266 64.4896L85.6682 62.5295L86.129 63.7978H85.0922L84.5162 62.8754L83.5946 63.3366H82.5578H81.6362L82.5578 62.0684L84.5162 61.6072L85.6682 60.9154H84.5162L85.6682 60.1083L87.6266 59.6472L88.8938 60.1083L89.3547 60.2813M79.3321 71.292L78.8713 71.0614V70.1391L79.4473 69.6779L79.7929 70.1391L79.3321 71.292ZM89.8155 60.4542L89.3547 60.2813" stroke="#252A33" />
	<path d="M65.3506 211.048L63.6142 216.062V217.256L62.1671 213.435L63.6142 209.376L68.8235 205.078L72.8752 201.735L75.4799 198.391L78.0846 194.093L80.1104 190.272L82.1363 187.407L80.6893 183.347L79.2422 180.721L75.4799 177.378L73.7435 173.318L71.7176 171.408H67.6659L71.7176 167.826L74.3223 165.677L76.6375 162.095L71.7176 159.946L76.6375 160.423L80.6893 161.14H84.4516L85.8986 159.229L84.4516 156.841L89.9503 159.946L91.3974 164.005L89.9503 167.826L87.6351 169.259V171.408L90.2397 170.214L89.0821 172.363L84.4516 174.751L82.7151 177.139L83.8727 180.243L86.7668 180.721L88.5033 177.378L92.8444 175.706L96.3173 173.557H102.395H106.447L108.472 176.064L107.315 175.706L104.131 174.751L99.2114 175.706L96.3173 177.378H99.2114L96.3173 178.81L91.3974 179.766L89.0821 182.392H91.3974H94.002L96.3173 181.437L97.7644 183.347H100.369L99.2114 180.721L104.131 184.78L105.289 187.407L101.527 188.123L99.2114 185.735H96.3173H94.002L92.8444 187.407V189.556V192.422C92.6515 193.218 92.2656 194.953 92.2656 195.526C92.2656 196.099 90.915 197.038 90.2397 197.436V194.093V191.705L89.9503 189.556H89.0821V192.422L88.5033 194.093L87.6351 192.899V190.272L85.8986 192.183L87.6351 195.526L86.7668 197.436L84.4516 199.347L85.8986 201.735L84.4516 203.406L83.5833 201.735L80.6893 201.018L80.1104 197.436L74.3223 203.406L65.3506 211.048Z" fill="white" />
	<path d="M90.5347 131.482L88.0059 138.927V140.7L85.8986 135.027L88.0059 129L95.5923 122.618L101.493 117.654L105.286 112.691L109.079 106.309L112.03 100.636L114.98 96.3818L112.873 90.3545L110.765 86.4545L105.286 81.4909L102.757 75.4636L99.807 72.6272H93.9065L99.807 67.3091L103.6 64.1182L106.972 58.8L99.807 55.6091L106.972 56.3182L112.873 57.3818H118.352L120.459 54.5454L118.352 51L126.36 55.6091L128.467 61.6363L126.36 67.3091L122.988 69.4363V72.6272L126.781 70.8545L125.095 74.0454L118.352 77.5909L115.823 81.1363L117.509 85.7454L121.723 86.4545L124.252 81.4909L130.574 79.0091L135.632 75.8181H144.483H150.383L153.334 79.5409L151.648 79.0091L147.012 77.5909L139.847 79.0091L135.632 81.4909H139.847L135.632 83.6181L128.467 85.0363L125.095 88.9363H128.467H132.26L135.632 87.5181L137.739 90.3545H141.532L139.847 86.4545L147.012 92.4818L148.697 96.3818L143.218 97.4454L139.847 93.8999H135.632H132.26L130.574 96.3818V99.5727V103.827C130.293 105.009 129.731 107.585 129.731 108.436C129.731 109.287 127.764 110.682 126.781 111.273V106.309V102.764L126.36 99.5727H125.095V103.827L124.252 106.309L122.988 104.536V100.636L120.459 103.473L122.988 108.436L121.723 111.273L118.352 114.109L120.459 117.654L118.352 120.136L117.087 117.654L112.873 116.591L112.03 111.273L103.6 120.136L90.5347 131.482Z" fill="white" />
	<path d="M55.7355 164.009L55.3478 165.483V165.834L55.0247 164.711L55.3478 163.518L56.511 162.255L57.4158 161.272L57.9974 160.29L58.579 159.027L59.0314 157.904L59.4838 157.062L59.1607 155.869L58.8375 155.097L57.9974 154.114L57.6097 152.921L57.1573 152.36H56.2525L57.1573 151.307L57.7389 150.675L58.2559 149.623L57.1573 148.991L58.2559 149.131L59.1607 149.342H60.0008L60.3239 148.78L60.0008 148.079L61.2287 148.991L61.5518 150.184L61.2287 151.307L60.7117 151.728V152.36L61.2933 152.009L61.0348 152.64L60.0008 153.342L59.613 154.044L59.8715 154.956L60.5178 155.097L60.9056 154.114L61.8749 153.623L62.6504 152.991H64.0076H64.9123L65.3647 153.728L65.1062 153.623L64.3953 153.342L63.2967 153.623L62.6504 154.114H63.2967L62.6504 154.535L61.5518 154.816L61.0348 155.588H61.5518H62.1334L62.6504 155.307L62.9736 155.869H63.5552L63.2967 155.097L64.3953 156.29L64.6538 157.062L63.8137 157.272L63.2967 156.57H62.6504H62.1334L61.8749 157.062V157.693V158.535C61.8318 158.769 61.7457 159.279 61.7457 159.448C61.7457 159.616 61.4441 159.892 61.2933 160.009V159.027V158.325L61.2287 157.693H61.0348V158.535L60.9056 159.027L60.7117 158.676V157.904L60.3239 158.465L60.7117 159.448L60.5178 160.009L60.0008 160.571L60.3239 161.272L60.0008 161.764L59.8069 161.272L59.1607 161.062L59.0314 160.009L57.7389 161.764L55.7355 164.009Z" fill="white" />
	<path d="M96.4269 163.607L95.8369 165.406V165.834L95.3452 164.463L95.8369 163.007L97.607 161.465L98.9838 160.265L99.8689 159.066L100.754 157.524L101.442 156.153L102.131 155.125L101.639 153.669L101.147 152.726L99.8689 151.527L99.2789 150.07L98.5905 149.385H97.2137L98.5905 148.1L99.4755 147.329L100.262 146.044L98.5905 145.272L100.262 145.444L101.639 145.701H102.918L103.409 145.015L102.918 144.159L104.786 145.272L105.278 146.729L104.786 148.1L103.999 148.614V149.385L104.884 148.956L104.491 149.728L102.918 150.584L102.327 151.441L102.721 152.555L103.704 152.726L104.294 151.527L105.769 150.927L106.95 150.156H109.015H110.392L111.08 151.055L110.687 150.927L109.605 150.584L107.933 150.927L106.95 151.527H107.933L106.95 152.041L105.278 152.383L104.491 153.326H105.278H106.163L106.95 152.983L107.441 153.669H108.326L107.933 152.726L109.605 154.183L109.998 155.125L108.72 155.382L107.933 154.525H106.95H106.163L105.769 155.125V155.896V156.924C105.704 157.21 105.573 157.832 105.573 158.038C105.573 158.244 105.114 158.581 104.884 158.723V157.524V156.667L104.786 155.896H104.491V156.924L104.294 157.524L103.999 157.095V156.153L103.409 156.838L103.999 158.038L103.704 158.723L102.918 159.409L103.409 160.265L102.918 160.865L102.623 160.265L101.639 160.008L101.442 158.723L99.4755 160.865L96.4269 163.607Z" fill="white" />
	<path d="M119.009 177.928L118.166 181.756V182.668L117.464 179.751L118.166 176.652L120.695 173.371L122.662 170.819L123.926 168.267L125.191 164.986L126.174 162.069L127.158 159.882L126.455 156.783L125.753 154.778L123.926 152.226L123.083 149.127L122.1 147.669H120.133L122.1 144.934L123.364 143.294L124.488 140.56L122.1 138.919L124.488 139.284L126.455 139.83H128.282L128.984 138.372L128.282 136.549L130.951 138.919L131.653 142.018L130.951 144.934L129.827 146.028V147.669L131.091 146.757L130.529 148.398L128.282 150.221L127.439 152.044L128.001 154.413L129.405 154.778L130.248 152.226L132.356 150.95L134.042 149.309H136.992H138.959L139.942 151.223L139.38 150.95L137.835 150.221L135.446 150.95L134.042 152.226H135.446L134.042 153.32L131.653 154.049L130.529 156.054H131.653H132.918L134.042 155.325L134.744 156.783H136.008L135.446 154.778L137.835 157.877L138.397 159.882L136.57 160.429L135.446 158.606H134.042H132.918L132.356 159.882V161.522V163.71C132.262 164.317 132.075 165.642 132.075 166.08C132.075 166.517 131.419 167.234 131.091 167.538V164.986V163.163L130.951 161.522H130.529V163.71L130.248 164.986L129.827 164.074V162.069L128.984 163.528L129.827 166.08L129.405 167.538L128.282 168.996L128.984 170.819L128.282 172.095L127.86 170.819L126.455 170.272L126.174 167.538L123.364 172.095L119.009 177.928Z" fill="white" />
	<path d="M59.0392 137.348L57.9773 141.18L58.1862 141.97L55.9016 139.876L56.8075 136.761L61.8732 132.365L65.8133 128.947L68.1372 125.96L70.2941 122.341L71.8881 119.211L73.6492 116.713L71.3229 114.461L69.2473 113.157L64.4607 112.069L61.8112 109.904L59.2145 109.246L54.6895 110.454L58.5878 106.878L61.1207 104.68L63.0797 101.622L57.2091 101.669L62.7872 100.517L67.4375 99.7817L71.6392 98.6592L72.921 96.9647L70.8872 95.818L77.5713 96.2294L79.8976 98.4811L78.95 101.438L76.615 103.076L76.991 104.497L79.691 102.93L78.7742 104.696L74.0206 107.656L72.4992 109.753L74.3351 111.46L77.6508 110.912L79.0051 108.184L83.5608 105.784L87.0634 103.327L93.8508 101.514L98.3757 100.305L101.077 101.358L99.7214 101.467L95.9989 101.785L90.6715 103.884L87.7318 105.853L90.9639 104.989L87.9825 106.8L82.655 108.899L80.5289 111.326L83.1146 110.635L86.0235 109.858L88.4421 108.536L90.3924 109.367L93.3013 108.59L91.5488 107.199L97.7537 108.415L99.5061 109.805L95.4297 111.401L92.4262 110.514L89.1941 111.377L86.6084 112.068L85.608 113.518L85.984 114.939L86.4854 116.833C86.4092 117.417 86.2818 118.679 86.3821 119.058C86.4824 119.437 85.1384 120.46 84.4539 120.925L83.8689 118.715L83.4512 117.137L82.7519 115.802L81.7823 116.061L82.2836 117.955L81.9297 119.233L80.7512 118.703L80.2916 116.967L78.6866 118.747L81.2107 120.439L80.5753 121.961L78.3239 123.914L80.3577 125.061L79.0341 126.598L77.772 125.752L74.4146 126.142L73.1415 123.947L67.7218 129.62L59.0392 137.348Z" fill="white" />
	<path d="M173.342 231.018C145.068 229.494 114.622 229.838 111.65 231.018C108.678 232.199 104 258.194 104 258.194L104 272L204.843 268.391L212.817 249.735C213.795 243.67 210.823 232.038 204.843 232.038C198.862 232.038 182.087 231.489 173.342 231.018Z" fill="white" />
	<path d="M121 243.416L121 254.035C121 254.035 126.576 248.331 128.868 245.729L128.868 256.621M156.034 256.035L151.534 247.962M134.534 251.997C135.494 251.948 141.868 251.875 144.936 251.997L136.768 247.433L133.034 251.997L134.534 257.035L142.802 257.035M147.034 257.035C147.034 256.937 155.534 250.035 155.534 250.035L159.007 247.554M164.034 247.554L161.533 256.464M196.376 249.535C196.59 249.535 192.876 252.245 189.876 253.386C186.076 254.832 191.209 256.338 194.876 257.342C198.543 258.346 189.876 258.194 189.876 258.194M177.035 249.535L176 253.386L176 257.035L183.534 256.464L183.534 249.535M111.65 231.018C114.622 229.838 145.068 229.494 173.342 231.018C182.087 231.489 198.862 232.038 204.843 232.038C210.823 232.038 213.795 243.67 212.817 249.735L204.843 268.391L104 272L104 258.194C104 258.194 108.678 232.199 111.65 231.018ZM164.875 254.535C165.088 254.34 166.298 250.232 167.809 248.893L172.076 251.814L171.5 256.464L166.565 256.281L164.875 254.535Z" stroke="#393939" />
</svg>
