<svg width="40" height="30" viewBox="0 0 40 30" fill="none" xmlns="http://www.w3.org/2000/svg">
<path d="M35.4355 19.0156H35V19.16H35.1129V19.5H35.2742V19.16H35.4355V19.0938V19.0156Z" fill="#273B4A"/>
<path d="M35.5161 19.5V19.125V19.0156H35.6129L35.7581 19.25L35.9032 19H36V19.5H35.9032V19.1562L35.7581 19.3906L35.6129 19.1562V19.5H35.5161Z" fill="#273B4A"/>
<circle cx="13.5" cy="12.5" r="9.5" fill="#EB001B"/>
<circle cx="26.5" cy="12.5" r="9.5" fill="#F79E1B"/>
<path fill-rule="evenodd" clip-rule="evenodd" d="M20 19.4283C21.8465 17.6952 23 15.2323 23 12.5C23 9.76774 21.8465 7.30487 20 5.57178C18.1535 7.30487 17 9.76774 17 12.5C17 15.2323 18.1535 17.6952 20 19.4283Z" fill="#FF5F00"/>
<path d="M10.5 28.0016H10V27.0017C10 27.0017 9.91424 26.1397 9.5 26.0016C9.31476 25.9399 9.18524 25.9399 9 26.0016C8.5858 26.1397 8.5 27.0016 8.5 27.0016V28.0016H8V27.0016C8 27.0016 7.9142 26.1397 7.5 26.0016C7.31476 25.9399 7.18524 25.9399 7 26.0016C6.58576 26.1397 6.5 27.0017 6.5 27.0017V27.5017V28.0017L6 28.0017V25.5293V25.0016H6.5V25.5294C6.5 25.5294 7.05844 25.0052 7.5 25.0016C7.93661 24.9981 8.5 25.5017 8.5 25.5017C8.5 25.5017 9.06467 24.9681 9.5 25.0016C10.0507 25.044 10.5 25.2976 10.5 26.0016V28.0016Z" fill="#273B4A"/>
<path fill-rule="evenodd" clip-rule="evenodd" d="M13 25.5026C13 25.5026 12.4359 24.9783 12 25.0025C11.2971 25.0416 11 25.7985 11 26.5025C11 27.2066 11.2971 27.9635 12 28.0025C12.4359 28.0268 13 27.5026 13 27.5026V28.0026L13.5 28.0025V25.0025H13L13 25.5026ZM11.75 26.7517C11.75 27.0279 11.9739 27.2517 12.25 27.2517C12.5261 27.2517 12.75 27.0279 12.75 26.7517V26.2517C12.75 25.9756 12.5261 25.7517 12.25 25.7517C11.9739 25.7517 11.75 25.9756 11.75 26.2517V26.7517Z" fill="#273B4A"/>
<path fill-rule="evenodd" clip-rule="evenodd" d="M28 25.501C28 25.501 27.4359 24.9767 27 25.0009C26.2971 25.04 26 25.7969 26 26.501C26 27.205 26.2971 27.9619 27 28.001C27.4359 28.0252 28 27.501 28 27.501V28.001L28.5 28.0009V25.0009H28L28 25.501ZM26.75 26.7501C26.75 27.0263 26.9739 27.2501 27.25 27.2501C27.5261 27.2501 27.75 27.0263 27.75 26.7501V26.2501C27.75 25.974 27.5261 25.7501 27.25 25.7501C26.9739 25.7501 26.75 25.974 26.75 26.2501V26.7501Z" fill="#273B4A"/>
<path fill-rule="evenodd" clip-rule="evenodd" d="M33.0255 26C33.0255 26 32.4608 25.4665 32.0255 25.5C31.4748 25.5424 31.1338 25.9584 31.0255 26.5C30.8874 27.1904 31.3226 27.961 32.0255 28C32.4614 28.0243 33.0255 27.5001 33.0255 27.5001V28.0001L33.5255 28V24H33.0255V26ZM32.25 27.5C32.6642 27.5 33 27.1642 33 26.75C33 26.3358 32.6642 26 32.25 26C31.8358 26 31.5 26.3358 31.5 26.75C31.5 27.1642 31.8358 27.5 32.25 27.5Z" fill="#273B4A"/>
<path d="M14.6614 25.8548C14.7683 25.2639 15.7457 25.8548 15.7457 25.8548L15.9919 25.2639C15.9919 25.2639 13.9771 24.6455 14 26.0001C14.0123 26.7299 15.5 26.4092 15.5 27.0002C15.5 27.646 14.1222 27.3323 14.1222 27.3323V27.8059C14.1222 27.8059 16 28.5002 16 27.0002C16 25.5024 14.5388 26.5318 14.6614 25.8548Z" fill="#273B4A"/>
<path d="M17 26H16.5V25.5H17V25H17.5V25.5H18.5V26H17.5V27.2C17.5 27.4277 17.7723 27.5 18 27.5C18.2277 27.5 18.5 27.2 18.5 27.2L18.75 27.75C18.75 27.75 18.4366 28 18 28C17.5634 28 17 27.9366 17 27.5V26.75V26Z" fill="#273B4A"/>
<path fill-rule="evenodd" clip-rule="evenodd" d="M21.5 27.5L21 27C21 27 20.362 27.366 20 27.2C19.6943 27.0598 19.4982 26.5 19.4982 26.5L21.4982 26.5C21.4982 25.5 20.8105 24.8375 19.9982 24.9999C19.4566 25.1083 18.9998 25.7964 19 26.5C19.0002 27.204 19.3235 27.8051 20 28C20.5933 28.171 21.5 27.5 21.5 27.5ZM19.5 26.0001L21 26C21 26 20.4142 25.362 20 25.5C19.738 25.5874 19.5 26.0001 19.5 26.0001Z" fill="#273B4A"/>
<path d="M22.5 26.5V28H22V25H22.5V25.3438C22.5 25.3438 22.768 25.0482 23 25C23.2784 24.9422 23.7 25.2 23.7 25.2L23.5 25.6C23.5 25.6 23.1953 25.5 23 25.5C22.5 25.5 22.5 26.5 22.5 26.5Z" fill="#273B4A"/>
<path d="M29.5 26.5085V28.0085H29V25.0085H29.5V25.3522C29.5 25.3522 29.768 25.0566 30 25.0085C30.2784 24.9506 30.7 25.2084 30.7 25.2084L30.5 25.6085C30.5 25.6085 30.1953 25.5085 30 25.5085C29.5 25.5085 29.5 26.5085 29.5 26.5085Z" fill="#273B4A"/>
<path d="M34.8536 27.1464C34.6583 26.9512 34.3417 26.9512 34.1464 27.1464C33.9512 27.3417 33.9512 27.6583 34.1464 27.8536C34.3417 28.0488 34.6583 28.0488 34.8536 27.8536C35.0488 27.6583 35.0488 27.3417 34.8536 27.1464Z" fill="#273B4A"/>
<path fill-rule="evenodd" clip-rule="evenodd" d="M34.3971 27.7499V27.555L34.5094 27.75H34.75L34.5478 27.555C34.5478 27.555 34.697 27.5109 34.697 27.3797C34.697 27.2485 34.3971 27.3073 34.3971 27.3073V27.25H34.25V27.7499H34.3971ZM34.4288 27.5108C34.4288 27.5108 34.5182 27.4965 34.5182 27.4452C34.5182 27.394 34.4288 27.3796 34.4288 27.3796V27.5108Z" fill="white"/>
<path d="M25 28C24.2971 27.961 23.9828 27.2038 24 26.5C24.0134 25.9505 24.174 25.5103 24.6624 25.258C25.0571 25.0541 26 25.258 26 25.258L25.8 25.8C25.8 25.8 25.1155 25.5631 24.8101 25.8C24.5739 25.9833 24.4802 26.2017 24.5 26.5C24.5224 26.8363 24.6975 27.3513 25 27.5C25.2804 27.6378 25.8 27 25.8 27L26 27.5C26 27.5 25.436 28.0242 25 28Z" fill="#273B4A"/>
</svg>
