<svg width="40" height="35" viewBox="0 0 40 35" fill="none" xmlns="http://www.w3.org/2000/svg">
	<path d="M11.9998 27.8816L8.4999 27.5C8.4999 27.5 1.15594 26.7367 0.999825 25.9999C0.753651 24.838 1.49995 23 1.49995 23L5.49993 7.49998L6.49969 2.99993C6.49969 2.99993 7.27718 1.90523 7.99969 1.49991C8.70184 1.10601 9.99969 0.999862 9.99969 0.999862C9.99969 0.999862 14.8707 0.583592 18 0.499984C20.3423 0.437402 24 0.499984 24 0.499984C24 0.499984 26.7482 0.360482 28.5 0.500002C29.8762 0.609608 31.9997 0.999905 31.9997 0.999905C31.9997 0.999905 34.1536 1.49998 34.9997 2.4999C35.7974 3.44265 36.0067 4.26498 35.9997 5.4999C35.9878 7.61198 30.7201 13.2515 28.4997 14.5C26.2792 15.7485 24.4845 15.4001 21.9997 15.5C19.4041 15.6043 16.8562 15.2253 15.4997 15.9999C13.9767 16.8695 13.4997 20.0209 13.4997 20.0209L11.9998 27.8816Z" fill="#253B80" />
	<path d="M22 17C24 17 26.1521 17.0408 28.5 16C30.786 14.9866 31.7946 13.8288 33.5 12C35.2736 10.0979 37.5 8 37.5 8C37.5 8 39.0409 9.99418 39.5 11.5C40.3617 14.3264 36 19.5 36 19.5C36 19.5 34.0761 21.4193 32.5 22C31.3855 22.4106 29.5 23 29.5 23L27 23C27 23 24.1515 22.8909 24 23C23.4287 23.4114 23 24.5 23 24.5L22.5 30.5C22.5 30.5 22.9084 32.7348 22 33.5C21.3843 34.0187 20 34 20 34L15.4997 33.9999C15.4997 33.9999 14.0494 34.0881 13.4997 33.4999C13.0781 33.0487 12.9997 31.9999 12.9997 31.9999L15.5 20C15.5 20 15.8049 18.289 16.5 17.5C17.3811 16.5 19.8433 17 22 17Z" fill="#253B80" />
</svg>
