<svg width="17" height="22" viewBox="0 0 17 22" fill="none" xmlns="http://www.w3.org/2000/svg">
<mask id="path-1-outside-1_82_68" maskUnits="userSpaceOnUse" x="4.00003" y="0.111084" width="9" height="6" fill="black">
<rect fill="white" x="4.00003" y="0.111084" width="9" height="6"/>
<path d="M10.2593 3.2222H6.74077C6.51649 3.2222 6.40435 3.2222 6.31543 3.18687C6.1875 3.13605 6.08618 3.03473 6.03536 2.9068C6.00003 2.81788 6.00003 2.70574 6.00003 2.48145C6.00003 2.36931 6.00003 2.31324 6.01769 2.26878C6.04311 2.20482 6.09376 2.15416 6.15773 2.12875C6.20219 2.11108 6.25826 2.11108 6.3704 2.11108H10.6297C10.7418 2.11108 10.7979 2.11108 10.8423 2.12875C10.9063 2.15416 10.957 2.20482 10.9824 2.26878C11 2.31324 11 2.36931 11 2.48145C11 2.70574 11 2.81788 10.9647 2.9068C10.9139 3.03473 10.8126 3.13605 10.6846 3.18687C10.5957 3.2222 10.4836 3.2222 10.2593 3.2222Z"/>
</mask>
<path d="M6.03536 2.9068L7.89405 2.16839L7.89405 2.16839L6.03536 2.9068ZM6.31543 3.18687L5.57702 5.04556L5.57702 5.04556L6.31543 3.18687ZM10.9647 2.9068L12.8234 3.64521L12.8234 3.64521L10.9647 2.9068ZM10.6846 3.18687L9.94622 1.32817L9.94622 1.32817L10.6846 3.18687ZM10.9824 2.26878L12.8411 1.53037L12.8411 1.53037L10.9824 2.26878ZM10.8423 2.12875L10.1039 3.98744L10.1039 3.98744L10.8423 2.12875ZM6.01769 2.26878L7.87639 3.00719L7.87639 3.00719L6.01769 2.26878ZM6.15773 2.12875L6.89614 3.98744L6.89614 3.98744L6.15773 2.12875ZM6.74077 5.2222H10.2593V1.2222H6.74077V5.2222ZM10.6297 0.111084H6.3704V4.11108H10.6297V0.111084ZM4.00003 2.48145C4.00003 2.56727 3.99903 2.72807 4.00875 2.87605C4.0196 3.0411 4.04958 3.32533 4.17666 3.64521L7.89405 2.16839C7.9858 2.39934 7.99812 2.58304 8.00014 2.61372C8.00126 2.6308 8.00078 2.63272 8.00042 2.60462C8.00006 2.57648 8.00003 2.54121 8.00003 2.48145H4.00003ZM6.74077 1.2222C6.68102 1.2222 6.64575 1.22216 6.61761 1.2218C6.58951 1.22145 6.59143 1.22096 6.60851 1.22209C6.63919 1.2241 6.82288 1.23642 7.05384 1.32817L5.57702 5.04556C5.89689 5.17264 6.18112 5.20263 6.34617 5.21347C6.49416 5.2232 6.65496 5.2222 6.74077 5.2222V1.2222ZM4.17666 3.64521C4.43078 4.28486 4.93737 4.79145 5.57702 5.04556L7.05384 1.32817C7.43763 1.48064 7.74158 1.7846 7.89405 2.16839L4.17666 3.64521ZM9.00003 2.48145C9.00003 2.54121 9 2.57648 8.99964 2.60462C8.99928 2.63272 8.9988 2.6308 8.99992 2.61372C9.00194 2.58304 9.01426 2.39934 9.10601 2.16839L12.8234 3.64521C12.9505 3.32533 12.9805 3.0411 12.9913 2.87605C13.001 2.72807 13 2.56727 13 2.48145H9.00003ZM10.2593 5.2222C10.3451 5.2222 10.5059 5.2232 10.6539 5.21347C10.8189 5.20263 11.1032 5.17264 11.423 5.04556L9.94622 1.32817C10.1772 1.23642 10.3609 1.2241 10.3916 1.22209C10.4086 1.22096 10.4106 1.22145 10.3825 1.2218C10.3543 1.22216 10.319 1.2222 10.2593 1.2222V5.2222ZM9.10601 2.16838C9.25848 1.7846 9.56243 1.48064 9.94622 1.32817L11.423 5.04556C12.0627 4.79145 12.5693 4.28486 12.8234 3.64521L9.10601 2.16838ZM13 2.48145C13 2.45171 13.001 2.33297 12.9935 2.21857C12.9849 2.08711 12.9593 1.82802 12.8411 1.53037L9.12367 3.00719C9.02309 2.75401 9.00635 2.54518 9.00213 2.4809C8.9999 2.44703 8.99984 2.4262 8.99992 2.43258C9 2.439 9.00003 2.44974 9.00003 2.48145H13ZM10.6297 4.11108C10.6614 4.11108 10.6721 4.11112 10.6785 4.1112C10.6849 4.11128 10.6641 4.11121 10.6302 4.10899C10.5659 4.10476 10.3571 4.08803 10.1039 3.98744L11.5807 0.270051C11.2831 0.151804 11.024 0.126238 10.8925 0.117598C10.7781 0.110079 10.6594 0.111084 10.6297 0.111084V4.11108ZM12.8411 1.53037C12.6124 0.954686 12.1564 0.498755 11.5807 0.270051L10.1039 3.98744C9.65617 3.80956 9.30155 3.45495 9.12367 3.00719L12.8411 1.53037ZM8.00003 2.48145C8.00003 2.44974 8.00006 2.439 8.00015 2.43258C8.00023 2.4262 8.00016 2.44703 7.99793 2.48091C7.99371 2.54518 7.97697 2.75401 7.87639 3.00719L4.159 1.53037C4.04075 1.82802 4.01518 2.08711 4.00654 2.21857C3.99903 2.33297 4.00003 2.45171 4.00003 2.48145H8.00003ZM6.3704 0.111084C6.34066 0.111084 6.22191 0.110079 6.10752 0.117598C5.97606 0.126238 5.71696 0.151804 5.41932 0.270052L6.89614 3.98744C6.64295 4.08803 6.43412 4.10476 6.36985 4.10899C6.33598 4.11121 6.31514 4.11128 6.32152 4.1112C6.32794 4.11112 6.33868 4.11108 6.3704 4.11108V0.111084ZM7.87639 3.00719C7.69851 3.45495 7.3439 3.80956 6.89614 3.98744L5.41932 0.270052C4.84363 0.498757 4.3877 0.954686 4.159 1.53037L7.87639 3.00719Z" fill="#273B4A" mask="url(#path-1-outside-1_82_68)"/>
<rect x="1" y="1" width="15" height="20" rx="2" stroke="#273B4A" stroke-width="2"/>
<ellipse cx="8.49997" cy="17.6668" rx="1.25" ry="1.11111" fill="#273B4A"/>
</svg>
