<svg width="15" height="20" viewBox="0 0 15 20" fill="none" xmlns="http://www.w3.org/2000/svg">
<path fill-rule="evenodd" clip-rule="evenodd" d="M0 4C0 2.11438 0 1.17157 0.585786 0.585787C1.17157 0 2.11438 0 4 0H11C12.8856 0 13.8284 0 14.4142 0.585787C15 1.17157 15 2.11438 15 4V16C15 17.8856 15 18.8284 14.4142 19.4142C13.8284 20 12.8856 20 11 20H4C2.11438 20 1.17157 20 0.585786 19.4142C0 18.8284 0 17.8856 0 16V4ZM4.50003 2.22215C4.50003 1.946 4.72389 1.72215 5.00003 1.72215H10C10.2762 1.72215 10.5 1.946 10.5 2.22215C10.5 2.49829 10.2762 2.72215 10 2.72215H5.00003C4.72389 2.72215 4.50003 2.49829 4.50003 2.22215ZM7.49997 17.7779C8.19033 17.7779 8.74997 17.2805 8.74997 16.6668C8.74997 16.0532 8.19033 15.5557 7.49997 15.5557C6.80961 15.5557 6.24997 16.0532 6.24997 16.6668C6.24997 17.2805 6.80961 17.7779 7.49997 17.7779Z" fill="#273B4A"/>
</svg>
