<svg width="20" height="20" viewBox="0 0 20 20" fill="none" xmlns="http://www.w3.org/2000/svg">
<path d="M3.17633 14.5421C2.96307 14.9343 2.79333 15.5244 2.79333 15.8962C2.79333 15.9825 2.79333 16.0923 2.81421 16.2446L0.148857 11.5506C0.0635412 11.3983 0 11.1798 0 10.9829C0 10.7858 0.0635412 10.5461 0.148857 10.3936L1.42843 8.10095L0 7.27195L4.64831 7.18384L6.90803 11.3537L5.45872 10.5023L3.17633 14.5421ZM3.17633 14.5421C2.96307 14.9343 2.79333 15.5244 2.79333 15.8962C2.79333 15.9825 2.79333 16.0923 2.81421 16.2446L0.148857 11.5506C0.0635412 11.3983 0 11.1798 0 10.9829C0 10.7858 0.0635412 10.5461 0.148857 10.3936L1.42843 8.10095M3.17633 14.5421C2.96307 14.9343 2.79333 15.5244 2.79333 15.8962C2.79333 15.9825 2.79333 16.0923 2.81421 16.2446L0.148857 11.5506C0.0635412 11.3983 0 11.1798 0 10.9829C0 10.7858 0.0635412 10.5461 0.148857 10.3936L1.42843 8.10095L0 7.27195M3.17633 14.5421C2.96307 14.9343 2.79333 15.5244 2.79333 15.8962C2.79333 15.9825 2.79333 16.0923 2.81421 16.2446L0.148857 11.5506C0.0635412 11.3983 0 11.1798 0 10.9829C0 10.7858 0.0635412 10.5461 0.148857 10.3936L1.42843 8.10095L0 7.27195L4.64831 7.18384L6.90803 11.3537M3.17633 14.5421C2.96307 14.9343 2.79333 15.5244 2.79333 15.8962C2.79333 15.9825 2.79333 16.0923 2.81421 16.2446L0.148857 11.5506C0.0635412 11.3983 0 11.1798 0 10.9829C0 10.7858 0.0635412 10.5461 0.148857 10.3936L1.42843 8.10095L0 7.27195L4.64831 7.18384L6.90803 11.3537L5.45872 10.5023M3.17633 14.5421C2.96307 14.9343 2.79333 15.5244 2.79333 15.8962C2.79333 15.9825 2.79333 16.0923 2.81421 16.2446L0.148857 11.5506C0.0635412 11.3983 0 11.1798 0 10.9829C0 10.7858 0.0635412 10.5461 0.148857 10.3936L1.42843 8.10095L0 7.27195" fill="#355A7B"/>
<path d="M7.09955 0.197144C6.29 0.197144 5.62846 0.590126 5.22368 1.31138L3.28339 4.73859L7.35543 7.1624L9.87196 2.70727L9.14687 1.4629C8.65682 0.612521 7.97436 0.197144 7.09955 0.197144Z" fill="#355A7B"/>
<path d="M3.30427 16.0485C3.30427 17.2928 4.30619 18.3189 5.52136 18.3189V18.319H9.40276V13.4938H4.34881L3.66724 14.7381C3.45398 15.109 3.30427 15.699 3.30427 16.0485Z" fill="#355A7B"/>
<path d="M8.31558 0C8.82741 0.218512 9.25393 0.612504 9.57342 1.17944L11.8549 5.2405L10.4264 6.0695L15.0521 6.13623L17.3129 1.98698L15.9061 2.83915L14.6056 0.568691C14.3914 0.197127 14.0293 0 13.5601 0H8.31558Z" fill="#355A7B"/>
<path d="M19.2749 13.0142C18.8275 13.3629 18.2939 13.5376 17.655 13.5376V13.5375H13.091V11.834L10.7033 15.9175L13.091 20.0001V18.3189H15.5866C16.0342 18.3189 16.4172 18.1004 16.6304 17.7296L19.2749 13.0142Z" fill="#355A7B"/>
<path d="M20 10.7208C20 10.3276 19.8929 9.95676 19.7006 9.60733L17.7612 6.17908L13.689 8.55907L16.2039 13.0142H17.6123C18.0588 13.0142 18.5072 12.9047 18.8275 12.729C19.5091 12.3367 20 11.507 20 10.7208Z" fill="#355A7B"/>
</svg>
