<svg width="40" height="30" viewBox="0 0 40 30" fill="none" xmlns="http://www.w3.org/2000/svg">
	<rect width="40" height="30" rx="4" fill="#2152D1" />
	<path fill-rule="evenodd" clip-rule="evenodd" d="M24.5 11.0006C25.6893 10.2992 28 11.5007 28 11.5007L28.5 9.50066C28.5 9.50066 26.7348 8.979 25.5 9.00066C22.5715 9.05202 21.1381 10.6534 21 13.0007C20.9266 14.2477 22.2672 14.6935 23.5167 15.1091C24.7531 15.5203 25.9004 15.9018 25.5 17.0006C24.7527 19.0518 20 18.0006 20 18.0006L19 20.0006C19 20.0006 26.4746 21.7208 28 18.5006C28.5085 17.4272 28.8011 16.6496 28.5 15.5006C28.2385 14.5028 26.9492 14.1745 25.7366 13.8657C24.3831 13.521 23.1253 13.2007 23.5 12.0007C23.6726 11.4479 23.916 11.3177 24.2616 11.1327L24.2617 11.1327C24.3363 11.0928 24.4156 11.0504 24.5 11.0006ZM17.9739 9.04284L14 20.0007L17 20.0006L21 9.00063L17.9739 9.04284ZM2 9.00065L5.50003 11.0007L10 20.0007L12.5 20.0006L16.5 9.00066H13L11 16.5006L10.75 15.7506C10.75 15.7506 8.93015 11.7908 8.25 9.75058C8 9.00065 7 9.00065 7 9.00065H2ZM29 20.0006L30.5 14.9585L31.5 12.4585L32.5 9.9585C32.5 9.9585 33.0792 9.13326 33.6443 9.04287C33.8252 9.01395 35 9.04292 35 9.04292H36L38.5 20.0428L36.5 20.0008L36 18.0006L32 18.0006L31.5 20.0006H29ZM34 11.4585L32.5 15.9585H35.5L34 11.4585Z" fill="white" />
</svg>
